<svg width="212" height="150" viewBox="0 0 212 150" fill="none" xmlns="http://www.w3.org/2000/svg">
<path d="M29.52 94.08C28.72 94.08 27.8 93.8 26.76 93.24C25.72 92.68 25.2 92.12 25.2 91.56L29.04 79.32C31.44 71.72 33.28 64.84 34.56 58.68C35.92 52.52 36.6 47.12 36.6 42.48C36.6 34.96 34.44 31.2 30.12 31.2C27.64 31.2 24.4 32.64 20.4 35.52C16.32 38.32 12.56 41.76 9.12 45.84C8.64 46.88 7.72 48.32 6.36 50.16C5 52 4 52.92 3.36 52.92C3.2 52.92 3.12 52.76 3.12 52.44C3.12 52.04 3.28 51.56 3.6 51C7.04 44.92 11.2 39.76 16.08 35.52C20.96 31.28 25.2 29.16 28.8 29.16C36.96 29.16 41.04 35 41.04 46.68C41.04 50.36 40.48 54.52 39.36 59.16C38.8 61.4 38.04 64.16 37.08 67.44C36.2 70.72 35.08 74.52 33.72 78.84C39.8 69.88 45.36 62.2 50.4 55.8C55.52 49.32 60.16 44.12 64.32 40.2C72.64 32.36 80.16 28.44 86.88 28.44C89.12 28.44 91 28.92 92.52 29.88C94.12 30.76 94.92 32 94.92 33.6C94.92 34.16 94.84 34.44 94.68 34.44L93.36 32.28C92.48 30.92 91.12 30.24 89.28 30.24C85.28 30.24 79.72 33.52 72.6 40.08C65.4 46.64 58.8 53.6 52.8 60.96C49.84 64.64 47.12 68.12 44.64 71.4C42.24 74.6 40.12 77.64 38.28 80.52C33.72 89.56 30.8 94.08 29.52 94.08ZM67.1972 70.56C63.5972 70.56 61.7972 69.84 61.7972 68.4C61.7972 66.96 62.5572 66.24 64.0772 66.24H69.7172L75.4772 66.12H79.1972C80.2372 66.12 81.3172 66.12 82.4372 66.12C83.5572 66.04 84.7172 65.96 85.9172 65.88V66.24C85.9172 67.2 83.3972 68.12 78.3572 69C74.9172 69.56 72.2372 69.96 70.3172 70.2C68.4772 70.44 67.4372 70.56 67.1972 70.56ZM123.073 102C122.433 102 121.873 101.28 121.393 99.84C120.913 98.4 120.673 96.88 120.673 95.28C120.673 90.08 124.233 80.28 131.353 65.88C130.553 66.04 129.473 66.24 128.113 66.48C126.833 66.72 124.993 67.08 122.593 67.56C117.713 68.52 113.873 69.2 111.073 69.6C108.353 70 106.033 70.2 104.113 70.2C100.513 70.2 98.7131 68.4 98.7131 64.8C98.7131 64.72 98.7931 64.6 98.9531 64.44C100.073 64.76 101.473 65 103.153 65.16C104.833 65.32 106.873 65.4 109.273 65.4C112.073 65.4 115.353 65.28 119.113 65.04C122.873 64.8 127.313 64.4 132.433 63.84L138.793 50.64C141.433 45.12 142.753 40.44 142.753 36.6C142.753 31.08 139.673 28.32 133.513 28.32C128.233 28.32 121.313 30.36 112.753 34.44C104.193 38.52 97.4731 43 92.5931 47.88C92.6731 47.8 92.5931 47.84 92.3531 48C92.1931 48.08 92.0331 48.12 91.8731 48.12C90.7531 48.12 90.1931 47 90.1931 44.76C90.1931 42.04 93.0731 39.2 98.8331 36.24C104.513 33.28 110.833 30.88 117.793 29.04C124.753 27.2 130.233 26.28 134.233 26.28C143.353 26.28 147.913 30.36 147.913 38.52C147.913 42.28 147.393 45.36 146.353 47.76C145.793 48.96 144.753 50.84 143.233 53.4C141.793 55.96 139.793 59.24 137.233 63.24C139.473 62.84 141.233 62.52 142.513 62.28C143.793 62.04 144.593 61.92 144.913 61.92C145.713 61.92 146.113 62.08 146.113 62.4C146.113 63.12 144.873 63.6 142.393 63.84L136.273 65.04C127.153 79.68 122.593 90.32 122.593 96.96L123.193 101.4C123.193 101.8 123.153 102 123.073 102ZM150.023 90.24C149.303 90.24 148.503 90.04 147.623 89.64C146.743 89.24 146.303 88.76 146.303 88.2C146.303 86.84 147.623 82.04 150.263 73.8C152.903 65.48 154.223 59.24 154.223 55.08C154.223 53.8 153.663 53.08 152.543 52.92C151.423 52.76 150.863 52.52 150.863 52.2C150.863 51.48 151.463 51.12 152.663 51.12C158.023 51.12 160.703 53.32 160.703 57.72C160.703 59 159.383 63.72 156.743 71.88C161.063 64.84 165.863 60 171.143 57.36C172.503 54.48 174.383 53.04 176.783 53.04C179.103 53.04 180.383 53.24 180.623 53.64C180.543 53.56 180.383 53.68 180.143 54C179.903 54.32 179.623 54.68 179.303 55.08C178.023 56.92 176.903 58.72 175.943 60.48C174.983 62.16 174.463 63.48 174.383 64.44C174.383 66.6 175.143 67.92 176.663 68.4C176.823 68.48 176.983 68.52 177.143 68.52C177.383 68.52 177.503 68.6 177.503 68.76C177.503 69.4 176.703 69.72 175.103 69.72C173.583 69.72 172.263 69.12 171.143 67.92C170.503 67.2 170.063 66.44 169.823 65.64C169.583 64.76 169.463 63.92 169.463 63.12C169.463 61.84 169.663 60.68 170.063 59.64C168.063 61.16 166.263 62.76 164.663 64.44C163.063 66.04 161.583 67.64 160.223 69.24C157.663 72.52 155.863 75.44 154.823 78C153.863 80.48 153.183 82.6 152.783 84.36C152.303 86.28 151.903 87.76 151.583 88.8C151.263 89.76 150.743 90.24 150.023 90.24ZM161.155 143.52C155.875 143.52 153.235 140.92 153.235 135.72C153.235 129.48 157.755 121.28 166.795 111.12C176.235 100.48 186.515 92 197.635 85.68C197.715 85.68 197.755 85.72 197.755 85.8C197.755 86.2 197.315 86.88 196.435 87.84C169.395 110.32 155.875 126.56 155.875 136.56C155.875 140.4 157.395 142.32 160.435 142.32C165.715 142.32 171.995 137.28 179.275 127.2C183.115 121.92 186.595 116.44 189.715 110.76C192.835 105.08 195.635 99.16 198.115 93C200.755 86.6 202.715 80.96 203.995 76.08C205.355 71.2 206.035 66.8 206.035 62.88C206.035 60.08 205.555 58.16 204.595 57.12C193.955 68.24 186.515 77.6 182.275 85.2C180.995 88.56 179.795 90.24 178.675 90.24C176.275 90.24 175.075 89.52 175.075 88.08C175.075 87.6 175.475 86.2 176.275 83.88C177.155 81.48 178.355 78.16 179.875 73.92L183.235 64.68C184.435 61.4 185.035 58.2 185.035 55.08V54.6C185.035 53.64 184.915 53.12 184.675 53.04C184.515 52.88 183.995 52.8 183.115 52.8C182.315 52.8 181.915 52.6 181.915 52.2C181.915 51.48 182.555 51.12 183.835 51.12C188.955 51.12 191.515 53.04 191.515 56.88C191.515 58.72 189.115 65.52 184.315 77.28C187.035 73.44 191.075 68.68 196.435 63C201.875 57.24 205.235 54.36 206.515 54.36C206.515 55 206.195 55.64 205.555 56.28C209.155 56.6 211.075 57.4 211.315 58.68C211.475 59.72 211.595 60.68 211.675 61.56C211.755 62.44 211.795 63.2 211.795 63.84C211.795 71.52 209.155 81.68 203.875 94.32C198.035 108.08 190.955 119.72 182.635 129.24C174.315 138.76 167.155 143.52 161.155 143.52Z" fill="#C6C6C6"/>
<path d="M26 116.54H23.7V126H21.88V116.54H20.46V115.04H21.88V114.26C21.88 113.033 22.1933 112.14 22.82 111.58C23.46 111.007 24.48 110.72 25.88 110.72V112.24C25.08 112.24 24.5133 112.4 24.18 112.72C23.86 113.027 23.7 113.54 23.7 114.26V115.04H26V116.54ZM44.042 116.82C44.362 116.193 44.8154 115.707 45.402 115.36C46.002 115.013 46.7287 114.84 47.582 114.84V116.72H47.102C45.062 116.72 44.042 117.827 44.042 120.04V126H42.222V115.04H44.042V116.82ZM73.223 115.04L66.623 131.16H64.743L66.903 125.88L62.483 115.04H64.503L67.943 123.92L71.343 115.04H73.223ZM99.1525 120.1C99.1525 120.447 99.1325 120.813 99.0925 121.2H90.3325C90.3992 122.28 90.7658 123.127 91.4325 123.74C92.1125 124.34 92.9325 124.64 93.8925 124.64C94.6792 124.64 95.3325 124.46 95.8525 124.1C96.3858 123.727 96.7592 123.233 96.9725 122.62H98.9325C98.6392 123.673 98.0525 124.533 97.1725 125.2C96.2925 125.853 95.1992 126.18 93.8925 126.18C92.8525 126.18 91.9192 125.947 91.0925 125.48C90.2792 125.013 89.6392 124.353 89.1725 123.5C88.7058 122.633 88.4725 121.633 88.4725 120.5C88.4725 119.367 88.6992 118.373 89.1525 117.52C89.6058 116.667 90.2392 116.013 91.0525 115.56C91.8792 115.093 92.8258 114.86 93.8925 114.86C94.9325 114.86 95.8525 115.087 96.6525 115.54C97.4525 115.993 98.0658 116.62 98.4925 117.42C98.9325 118.207 99.1525 119.1 99.1525 120.1ZM97.2725 119.72C97.2725 119.027 97.1192 118.433 96.8125 117.94C96.5058 117.433 96.0858 117.053 95.5525 116.8C95.0325 116.533 94.4525 116.4 93.8125 116.4C92.8925 116.4 92.1058 116.693 91.4525 117.28C90.8125 117.867 90.4458 118.68 90.3525 119.72H97.2725ZM117.475 116.82C117.795 116.193 118.248 115.707 118.835 115.36C119.435 115.013 120.162 114.84 121.015 114.84V116.72H120.535C118.495 116.72 117.475 117.827 117.475 120.04V126H115.655V115.04H117.475V116.82ZM141.096 126.18C140.256 126.18 139.502 126.04 138.836 125.76C138.169 125.467 137.642 125.067 137.256 124.56C136.869 124.04 136.656 123.447 136.616 122.78H138.496C138.549 123.327 138.802 123.773 139.256 124.12C139.722 124.467 140.329 124.64 141.076 124.64C141.769 124.64 142.316 124.487 142.716 124.18C143.116 123.873 143.316 123.487 143.316 123.02C143.316 122.54 143.102 122.187 142.676 121.96C142.249 121.72 141.589 121.487 140.696 121.26C139.882 121.047 139.216 120.833 138.696 120.62C138.189 120.393 137.749 120.067 137.376 119.64C137.016 119.2 136.836 118.627 136.836 117.92C136.836 117.36 137.002 116.847 137.336 116.38C137.669 115.913 138.142 115.547 138.756 115.28C139.369 115 140.069 114.86 140.856 114.86C142.069 114.86 143.049 115.167 143.796 115.78C144.542 116.393 144.942 117.233 144.996 118.3H143.176C143.136 117.727 142.902 117.267 142.476 116.92C142.062 116.573 141.502 116.4 140.796 116.4C140.142 116.4 139.622 116.54 139.236 116.82C138.849 117.1 138.656 117.467 138.656 117.92C138.656 118.28 138.769 118.58 138.996 118.82C139.236 119.047 139.529 119.233 139.876 119.38C140.236 119.513 140.729 119.667 141.356 119.84C142.142 120.053 142.782 120.267 143.276 120.48C143.769 120.68 144.189 120.987 144.536 121.4C144.896 121.813 145.082 122.353 145.096 123.02C145.096 123.62 144.929 124.16 144.596 124.64C144.262 125.12 143.789 125.5 143.176 125.78C142.576 126.047 141.882 126.18 141.096 126.18Z" fill="#C6C6C6"/>
</svg>
