<svg width="138" height="98" viewBox="0 0 138 98" fill="none" xmlns="http://www.w3.org/2000/svg">
<path d="M19.2159 61.4656C18.6952 61.4656 18.0963 61.2827 17.4193 60.9168C16.7423 60.5509 16.4038 60.1851 16.4038 59.8192L18.9035 51.8224C20.4657 46.8571 21.6635 42.3622 22.4967 38.3376C23.382 34.3131 23.8246 30.7851 23.8246 27.7536C23.8246 22.8405 22.4186 20.384 19.6065 20.384C17.9921 20.384 15.8831 21.3248 13.2793 23.2064C10.6235 25.0357 8.17591 27.2832 5.93667 29.9488C5.62421 30.6283 5.02535 31.5691 4.14006 32.7712C3.25478 33.9733 2.60384 34.5744 2.18723 34.5744C2.08308 34.5744 2.03101 34.4699 2.03101 34.2608C2.03101 33.9995 2.13516 33.6859 2.34346 33.32C4.5827 29.3477 7.29063 25.9765 10.4672 23.2064C13.6438 20.4363 16.4038 19.0512 18.7472 19.0512C24.0589 19.0512 26.7148 22.8667 26.7148 30.4976C26.7148 32.9019 26.3503 35.6197 25.6212 38.6512C25.2567 40.1147 24.762 41.9179 24.137 44.0608C23.5642 46.2038 22.8352 48.6864 21.9499 51.5088C25.9076 45.6549 29.5269 40.6373 32.8076 36.456C36.1404 32.2224 39.1608 28.8251 41.8687 26.264C47.2846 21.1419 52.1797 18.5808 56.554 18.5808C58.0121 18.5808 59.2359 18.8944 60.2253 19.5216C61.2668 20.0965 61.7876 20.9067 61.7876 21.952C61.7876 22.3179 61.7355 22.5008 61.6314 22.5008L60.7721 21.0896C60.1993 20.2011 59.314 19.7568 58.1163 19.7568C55.5125 19.7568 51.8933 21.8998 47.2585 26.1856C42.5718 30.4715 38.2755 35.0187 34.3699 39.8272C32.4431 42.2315 30.6725 44.5051 29.0582 46.648C27.4959 48.7387 26.1159 50.7248 24.9182 52.6064C21.9499 58.5125 20.0491 61.4656 19.2159 61.4656ZM43.7416 46.0992C41.3982 46.0992 40.2265 45.6288 40.2265 44.688C40.2265 43.7472 40.7213 43.2768 41.7107 43.2768H45.382L49.1314 43.1984H51.553C52.2299 43.1984 52.933 43.1984 53.662 43.1984C54.3911 43.1462 55.1462 43.0939 55.9273 43.0416V43.2768C55.9273 43.904 54.2869 44.5051 51.0062 45.08C48.7669 45.4459 47.0224 45.7072 45.7726 45.864C44.5748 46.0208 43.8979 46.0992 43.7416 46.0992ZM80.1136 66.64C79.697 66.64 79.3325 66.1696 79.02 65.2288C78.7076 64.288 78.5514 63.2949 78.5514 62.2496C78.5514 58.8523 80.8687 52.4496 85.5034 43.0416C84.9827 43.1461 84.2797 43.2768 83.3944 43.4336C82.5612 43.5904 81.3634 43.8256 79.8012 44.1392C76.6246 44.7664 74.1249 45.2107 72.3023 45.472C70.5317 45.7333 69.0215 45.864 67.7717 45.864C65.4283 45.864 64.2567 44.688 64.2567 42.336C64.2567 42.2838 64.3088 42.2054 64.4129 42.1008C65.1419 42.3099 66.0532 42.4667 67.1468 42.5712C68.2404 42.6758 69.5683 42.728 71.1306 42.728C72.9532 42.728 75.0883 42.6496 77.5359 42.4928C79.9834 42.336 82.8736 42.0747 86.2065 41.7088L90.3465 33.0848C92.0649 29.4784 92.9242 26.4208 92.9242 23.912C92.9242 20.3056 90.9193 18.5024 86.9095 18.5024C83.4725 18.5024 78.968 19.8352 73.3959 22.5008C67.8238 25.1664 63.4495 28.0933 60.2729 31.2816C60.325 31.2294 60.2729 31.2555 60.1167 31.36C60.0126 31.4123 59.9084 31.4384 59.8042 31.4384C59.0752 31.4384 58.7107 30.7067 58.7107 29.2432C58.7107 27.4661 60.5854 25.6107 64.3348 23.6768C68.0321 21.743 72.1461 20.175 76.6766 18.9728C81.2072 17.7707 84.7744 17.1696 87.3782 17.1696C93.3148 17.1696 96.2831 19.8352 96.2831 25.1664C96.2831 27.6229 95.9446 29.6352 95.2676 31.2032C94.9031 31.9872 94.2261 33.2155 93.2366 34.888C92.2993 36.5606 90.9974 38.7035 89.331 41.3168C90.7891 41.0555 91.9348 40.8464 92.768 40.6896C93.6012 40.5328 94.1219 40.4544 94.3302 40.4544C94.851 40.4544 95.1114 40.559 95.1114 40.768C95.1114 41.2384 94.3042 41.552 92.6898 41.7088L88.7061 42.4928C82.7695 52.0576 79.8012 59.0091 79.8012 63.3472L80.1917 66.248C80.1917 66.5093 80.1657 66.64 80.1136 66.64ZM97.6565 58.9568C97.1879 58.9568 96.6671 58.8261 96.0943 58.5648C95.5215 58.3035 95.235 57.9899 95.235 57.624C95.235 56.7355 96.0943 53.5995 97.8128 48.216C99.5313 42.7803 100.391 38.7035 100.391 35.9856C100.391 35.1493 100.026 34.6789 99.2969 34.5744C98.5679 34.4699 98.2033 34.3131 98.2033 34.104C98.2033 33.6336 98.5939 33.3984 99.375 33.3984C102.864 33.3984 104.609 34.8357 104.609 37.7104C104.609 38.5467 103.749 41.6304 102.031 46.9616C104.843 42.3621 107.967 39.2 111.404 37.4752C112.29 35.5936 113.514 34.6528 115.076 34.6528C116.586 34.6528 117.419 34.7835 117.575 35.0448C117.523 34.9925 117.419 35.0709 117.263 35.28C117.107 35.4891 116.924 35.7243 116.716 35.9856C115.883 37.1877 115.154 38.3637 114.529 39.5136C113.904 40.6112 113.566 41.4736 113.514 42.1008C113.514 43.512 114.008 44.3744 114.998 44.688C115.102 44.7403 115.206 44.7664 115.31 44.7664C115.466 44.7664 115.544 44.8187 115.544 44.9232C115.544 45.3414 115.024 45.5504 113.982 45.5504C112.993 45.5504 112.134 45.1584 111.404 44.3744C110.988 43.904 110.701 43.4075 110.545 42.8848C110.389 42.3099 110.311 41.7611 110.311 41.2384C110.311 40.4021 110.441 39.6443 110.701 38.9648C109.4 39.9579 108.228 41.0032 107.186 42.1008C106.145 43.1462 105.181 44.1915 104.296 45.2368C102.63 47.3797 101.458 49.2875 100.781 50.96C100.156 52.5803 99.7135 53.9654 99.4532 55.1152C99.1407 56.3696 98.8803 57.3366 98.672 58.016C98.4637 58.6432 98.1252 58.9568 97.6565 58.9568ZM104.903 93.7664C101.466 93.7664 99.7474 92.0677 99.7474 88.6704C99.7474 84.5936 102.69 79.2363 108.574 72.5984C114.719 65.6469 121.411 60.1067 128.649 55.9776C128.701 55.9776 128.727 56.0037 128.727 56.056C128.727 56.3174 128.441 56.7616 127.868 57.3888C110.267 72.0757 101.466 82.6859 101.466 89.2192C101.466 91.728 102.455 92.9824 104.434 92.9824C107.871 92.9824 111.959 89.6896 116.698 83.104C119.198 79.6544 121.463 76.0742 123.494 72.3632C125.525 68.6523 127.347 64.7845 128.962 60.76C130.68 56.5787 131.956 52.8939 132.789 49.7056C133.675 46.5174 134.117 43.6427 134.117 41.0816C134.117 39.2523 133.805 37.9979 133.18 37.3184C126.254 44.5835 121.411 50.6987 118.651 55.664C117.818 57.8592 117.036 58.9568 116.307 58.9568C114.745 58.9568 113.964 58.4864 113.964 57.5456C113.964 57.232 114.224 56.3173 114.745 54.8016C115.318 53.2336 116.099 51.0645 117.089 48.2944L119.276 42.2576C120.057 40.1147 120.447 38.024 120.447 35.9856V35.672C120.447 35.0448 120.369 34.7051 120.213 34.6528C120.109 34.5483 119.77 34.496 119.198 34.496C118.677 34.496 118.416 34.3653 118.416 34.104C118.416 33.6336 118.833 33.3984 119.666 33.3984C122.999 33.3984 124.665 34.6528 124.665 37.1616C124.665 38.3637 123.103 42.8064 119.979 50.4896C121.749 47.9808 124.379 44.8709 127.868 41.16C131.409 37.3968 133.596 35.5152 134.43 35.5152C134.43 35.9333 134.221 36.3515 133.805 36.7696C136.148 36.9787 137.398 37.5014 137.554 38.3376C137.658 39.0171 137.736 39.6443 137.789 40.2192C137.841 40.7941 137.867 41.2907 137.867 41.7088C137.867 46.7264 136.148 53.3643 132.711 61.6224C128.91 70.6123 124.301 78.2171 118.885 84.4368C113.469 90.6566 108.809 93.7664 104.903 93.7664Z" fill="#C6C6C6"/>
<path d="M16.9246 76.1394H15.4274V82.32H14.2427V76.1394H13.3184V75.1594H14.2427V74.6498C14.2427 73.8482 14.4466 73.2648 14.8546 72.8989C15.2712 72.5245 15.9352 72.337 16.8465 72.337V73.3301C16.3257 73.3301 15.9568 73.4346 15.7399 73.6437C15.5316 73.8443 15.4274 74.1794 15.4274 74.6498V75.1594H16.9246V76.1394ZM28.6689 76.3224C28.8772 75.9127 29.1723 75.5952 29.5542 75.3685C29.9448 75.1418 30.4178 75.0288 30.9732 75.0288V76.257H30.6608C29.3329 76.257 28.6689 76.9803 28.6689 78.4261V82.32H27.4842V75.1594H28.6689V76.3224ZM47.6641 75.1594L43.3679 85.6912H42.1441L43.5501 82.2416L40.673 75.1594H41.9879L44.2271 80.961L46.4403 75.1594H47.6641ZM64.5427 78.4653C64.5427 78.692 64.5297 78.9311 64.5037 79.184H58.8014C58.8448 79.8896 59.0835 80.4429 59.5174 80.8434C59.9601 81.2354 60.4939 81.4314 61.1188 81.4314C61.6309 81.4314 62.0561 81.3138 62.3946 81.0786C62.7418 80.8349 62.9848 80.5122 63.1237 80.1117H64.3995C64.2086 80.7997 63.8267 81.3615 63.2539 81.7973C62.681 82.2239 61.9694 82.4376 61.1188 82.4376C60.4418 82.4376 59.8343 82.2853 59.2961 81.9802C58.7667 81.6751 58.3501 81.2439 58.0463 80.6866C57.7425 80.1202 57.5907 79.4669 57.5907 78.7266C57.5907 77.9864 57.7382 77.337 58.0333 76.7797C58.3284 76.2224 58.7407 75.7951 59.2701 75.4992C59.8082 75.1941 60.4244 75.0418 61.1188 75.0418C61.7957 75.0418 62.3946 75.1901 62.9154 75.4861C63.4361 75.7821 63.8353 76.1917 64.1131 76.7144C64.3995 77.2285 64.5427 77.812 64.5427 78.4653ZM63.3189 78.217C63.3189 77.7643 63.2192 77.3762 63.0195 77.0541C62.8199 76.7229 62.5465 76.4746 62.1993 76.3093C61.8608 76.1349 61.4833 76.048 61.0667 76.048C60.4678 76.048 59.9557 76.2394 59.5305 76.6229C59.1139 77.0064 58.8752 77.5376 58.8144 78.217H63.3189ZM76.4696 76.3224C76.6779 75.9127 76.9728 75.5952 77.3549 75.3685C77.7455 75.1418 78.2187 75.0288 78.774 75.0288V76.257H78.4615C77.1336 76.257 76.4696 76.9803 76.4696 78.4261V82.32H75.2849V75.1594H76.4696V76.3224ZM91.8456 82.4376C91.2988 82.4376 90.808 82.3461 90.3744 82.1632C89.9403 81.9717 89.5972 81.7104 89.3459 81.3792C89.094 81.0394 88.9554 80.652 88.9293 80.2162H90.1531C90.1876 80.5736 90.3523 80.865 90.6478 81.0917C90.9512 81.3184 91.3463 81.4314 91.8326 81.4314C92.2837 81.4314 92.6397 81.3315 92.9001 81.1309C93.1605 80.9303 93.2907 80.6781 93.2907 80.373C93.2907 80.0594 93.1514 79.8288 92.8741 79.6805C92.5961 79.5237 92.1665 79.3715 91.5852 79.2232C91.0553 79.084 90.6218 78.9442 90.2833 78.805C89.9533 78.6567 89.6669 78.4437 89.4241 78.1648C89.1897 77.8773 89.0725 77.5029 89.0725 77.041C89.0725 76.6752 89.1806 76.34 89.398 76.0349C89.6148 75.7298 89.9227 75.4907 90.3224 75.3162C90.7214 75.1333 91.1771 75.0418 91.6893 75.0418C92.4789 75.0418 93.1169 75.2424 93.6031 75.6429C94.0887 76.0434 94.3491 76.5922 94.3842 77.2893H93.1995C93.1735 76.9149 93.0212 76.6144 92.7439 76.3877C92.4744 76.161 92.1099 76.048 91.6503 76.048C91.2246 76.048 90.8861 76.1394 90.6348 76.3224C90.3829 76.5053 90.2573 76.7451 90.2573 77.041C90.2573 77.2762 90.3308 77.4722 90.4786 77.629C90.6348 77.7773 90.8255 77.8989 91.0514 77.9949C91.2858 78.0818 91.6067 78.1824 92.0148 78.2954C92.5265 78.4346 92.9431 78.5744 93.2646 78.7136C93.5855 78.8442 93.8589 79.0448 94.0848 79.3146C94.3191 79.5845 94.4402 79.9373 94.4493 80.373C94.4493 80.765 94.3406 81.1178 94.1239 81.4314C93.9065 81.745 93.5986 81.9933 93.1995 82.1762C92.809 82.3507 92.3572 82.4376 91.8456 82.4376Z" fill="#FF9900"/>
</svg>
